<svg xmlns="http://www.w3.org/2000/svg" xmlns:xlink="http://www.w3.org/1999/xlink" viewBox="0 0 411.97 899.29"><defs><style>.cls-1{fill:#1a1a1a;}.cls-2,.cls-4{fill:#999;}.cls-2{opacity:0.19;}.cls-3{fill:url(#radial-gradient);}</style><radialGradient id="radial-gradient" cx="101.55" cy="685.9" r="377.76" gradientTransform="translate(918.99 339.8) rotate(90) scale(1.12 1.71)" gradientUnits="userSpaceOnUse"><stop offset="0" stop-color="#737373"/><stop offset="0.29" stop-color="#707070" stop-opacity="0.98"/><stop offset="0.47" stop-color="#686868" stop-opacity="0.91"/><stop offset="0.61" stop-color="#5a5a5a" stop-opacity="0.78"/><stop offset="0.74" stop-color="#454545" stop-opacity="0.6"/><stop offset="0.86" stop-color="#2b2b2b" stop-opacity="0.38"/><stop offset="0.97" stop-color="#0b0b0b" stop-opacity="0.1"/><stop offset="1" stop-opacity="0"/></radialGradient></defs><g id="Layer_2" data-name="Layer 2"><g id="Layer_1-2" data-name="Layer 1"><path class="cls-1" d="M.28,13.38,52.61,214.94C93,370.53,93,529.44,52.61,685L.46,885.9c-3.28,12.62,22.88,18.68,32.57,7.55L404.24,467c10.35-11.89,10.31-26.45-.11-38.31L32.82,5.8C23.09-5.29-3,.79.28,13.38Z"/><path class="cls-2" d="M32.82,5.8C23.09-5.29-3,.79.28,13.38L52.61,214.94C93,370.53,93,529.44,52.61,685L.46,885.9c-3.28,12.62,22.88,18.68,32.57,7.55,0,0,64.75-115,119.51-235.34s58.05-283.07,0-416.25C111.7,148.12,32.82,5.8,32.82,5.8Z"/><path class="cls-3" d="M.28,13.38,52.61,214.94C93,370.53,93,529.44,52.61,685L.46,885.9c-3.28,12.62,22.88,18.68,32.57,7.55l364.9-443.81L32.82,5.8C23.09-5.29-3,.79.28,13.38Z"/><path class="cls-4" d="M382.39,447.93a14.59,14.59,0,0,1-3.88,9.58S149.82,704.68,124.34,741.2s-73.45,92.26-73.45,92.26c-2.13,2.38-7.74,1.06-7-1.66,0,0,28-78.76,48.12-144.56,20-65.52,32-158.91,32-238.52s-22.57-197-34-238S43.52,66.88,43.52,66.88c-.71-2.72,4.89-4,7-1.68,0,0,38.39,52.1,57.93,74.31s270,298.77,270,298.77a14.65,14.65,0,0,1,3.93,9.65m29.58,0c0-6.64-2.61-13.27-7.84-19.22L32.82,5.8C23.65-4.64,0,.14,0,11.25a8.43,8.43,0,0,0,.28,2.13L52.61,214.94A933.33,933.33,0,0,1,82.91,450a933.32,933.32,0,0,1-30.3,235L.46,885.9A8.56,8.56,0,0,0,.18,888c0,11.13,23.73,15.89,32.85,5.41L404.24,467c5.15-5.92,7.73-12.51,7.73-19.09Z"/></g></g></svg>