<?xml version="1.0" encoding="UTF-8" standalone="no"?>
<!-- Created with Inkscape (http://www.inkscape.org/) -->

<svg
   width="2560"
   height="1440"
   viewBox="0 0 2560 1440"
   version="1.1"
   id="svg1"
   inkscape:version="1.3.2 (091e20e, 2023-11-25, custom)"
   sodipodi:docname="emergencyButton.svg"
   xmlns:inkscape="http://www.inkscape.org/namespaces/inkscape"
   xmlns:sodipodi="http://sodipodi.sourceforge.net/DTD/sodipodi-0.dtd"
   xmlns="http://www.w3.org/2000/svg"
   xmlns:svg="http://www.w3.org/2000/svg">
  <sodipodi:namedview
     id="namedview1"
     pagecolor="#ffffff"
     bordercolor="#000000"
     borderopacity="0.25"
     inkscape:showpageshadow="2"
     inkscape:pageopacity="0.0"
     inkscape:pagecheckerboard="0"
     inkscape:deskcolor="#d1d1d1"
     inkscape:document-units="px"
     inkscape:zoom="0.3734375"
     inkscape:cx="1495.5649"
     inkscape:cy="1010.8787"
     inkscape:window-width="2560"
     inkscape:window-height="1369"
     inkscape:window-x="1912"
     inkscape:window-y="-8"
     inkscape:window-maximized="1"
     inkscape:current-layer="layer1" />
  <defs
     id="defs1">
    <inkscape:path-effect
       effect="perspective-envelope"
       up_left_point="1336.2159,580.74188"
       up_right_point="1501.6791,580.74188"
       down_left_point="1332.5761,664.11044"
       down_right_point="1533.4671,657.84032"
       id="path-effect13"
       is_visible="true"
       lpeversion="1"
       deform_type="perspective"
       horizontal_mirror="false"
       vertical_mirror="false"
       overflow_perspective="false" />
    <inkscape:path-effect
       effect="perspective-envelope"
       up_left_point="183.44759,320.94477"
       up_right_point="701.34763,317.15776"
       down_left_point="211.54813,639.99997"
       down_right_point="788.1469,636.21295"
       id="path-effect11"
       is_visible="true"
       lpeversion="1"
       deform_type="perspective"
       horizontal_mirror="false"
       vertical_mirror="false"
       overflow_perspective="false" />
    <rect
       x="262.42678"
       y="345.43933"
       width="428.45188"
       height="88.368201"
       id="rect9" />
    <inkscape:path-effect
       effect="perspective-envelope"
       up_left_point="876.41975,562.96089"
       up_right_point="900.26188,886.10186"
       down_left_point="869.49548,749.15522"
       down_right_point="887.00734,1083.3624"
       id="path-effect9"
       is_visible="true"
       lpeversion="1"
       deform_type="perspective"
       horizontal_mirror="false"
       vertical_mirror="false"
       overflow_perspective="false" />
    <rect
       x="736.40167"
       y="251.71548"
       width="1167.5314"
       height="283.84937"
       id="rect6" />
    <rect
       x="523.51464"
       y="400.33473"
       width="257.07113"
       height="281.17155"
       id="rect5" />
    <inkscape:path-effect
       effect="perspective-envelope"
       up_left_point="904.93363,320.40558"
       up_right_point="949.6688,319.38433"
       down_left_point="907.23565,340.35501"
       down_right_point="956.66585,338.26998"
       id="path-effect4"
       is_visible="true"
       lpeversion="1"
       deform_type="perspective"
       horizontal_mirror="false"
       vertical_mirror="false"
       overflow_perspective="false" />
    <rect
       x="879.66527"
       y="322.67782"
       width="590.46025"
       height="179.41423"
       id="rect4" />
    <inkscape:path-effect
       effect="perspective-envelope"
       up_left_point="876.41975,562.96089"
       up_right_point="900.26188,886.10186"
       down_left_point="869.49548,749.15522"
       down_right_point="887.00734,1083.3624"
       id="path-effect9-9"
       is_visible="true"
       lpeversion="1"
       deform_type="perspective"
       horizontal_mirror="false"
       vertical_mirror="false"
       overflow_perspective="false" />
  </defs>
  <g
     inkscape:label="Layer 1"
     inkscape:groupmode="layer"
     id="layer1">
    <path
       style="fill:#402123;fill-opacity:1;stroke:#000000;stroke-width:3.09769;stroke-opacity:1"
       d="m 534.9647,886.02034 -19.8064,-468.54161 1369.145,-3.67341 192.9005,476.58737 z"
       id="path8"
       sodipodi:nodetypes="ccccc" />
    <path
       style="fill:#d54633;stroke-width:2.94252"
       d="M 388.28452,304.86909 V 488.06873"
       id="path1" />
    <path
       style="fill:#402123;fill-opacity:1;stroke:#000000;stroke-width:2.94258;stroke-opacity:1"
       d="m 550.14703,884.48059 1527.63217,6.51438 -3.9397,292.69103 c 0,0 -1546.04884,9.962 -1542.94016,-1.4774 3.10869,-11.4395 19.24769,-297.72801 19.24769,-297.72801 z"
       id="path7"
       sodipodi:nodetypes="cccsc" />
    <path
       style="fill:#402123;fill-opacity:1;stroke:#000000;stroke-width:2.40634;stroke-opacity:1"
       id="rect8"
       width="92.648041"
       height="253.31749"
       x="746.64673"
       y="868.48767"
       ry="0"
       inkscape:path-effect="#path-effect9"
       sodipodi:type="rect"
       d="M 876.41975,562.96089 900.26188,886.10186 887.00734,1083.3624 869.49548,749.15522 Z"
       transform="matrix(1.4712605,0,0,1.4712605,-774.7989,-412.11911)" />
    <g
       id="g13"
       transform="matrix(3.1611161,0,0,3.1611161,-3288.261,-1525.6504)">
      <path
         style="fill:#f50215;fill-opacity:1;stroke:#000000;stroke-width:2;stroke-opacity:1"
         d="m 1295.3975,637.99163 1.6736,58.57741 c 0,0 45.1883,46.55214 136.9038,47.2216 91.7155,0.66945 133.8912,-49.56469 133.8912,-49.56469 l 1.3389,-62.25942 z"
         id="path13"
         sodipodi:nodetypes="ccsccc" />
      <ellipse
         style="fill:#f50215;fill-opacity:1;stroke:#000000;stroke-width:2;stroke-opacity:1"
         id="path11"
         cx="1432.4386"
         cy="636.21863"
         rx="137.27931"
         ry="63.432507" />
      <path
         d="m 1332.6496,662.42607 3.5173,-80.56277 14.3269,-0.006 -0.034,7.91057 -11.9487,0.0406 -0.8137,22.33955 11.8659,-0.13978 -0.059,9.23971 -12.1456,0.18536 -1.078,29.5944 14.4601,-0.38102 -0.034,11.22714 z m 22.3459,-0.68337 -0.5285,-79.88709 3.9079,-0.002 6.2215,52.95923 c 0.6666,5.71617 1.1678,10.09601 1.4933,13.05265 0.1525,-3.29511 0.3956,-8.04381 0.7239,-14.14722 l 2.8188,-51.8694 3.4537,-0.001 4.5752,79.20175 -3.0072,0.092 -3.4843,-68.35918 -3.392,68.56947 -2.8353,0.0867 -7.8366,-69.58427 0.9418,69.79512 z m 27.7479,-0.84859 -5.4747,-79.04809 13.8899,-0.006 0.8364,7.78637 -11.5767,0.0394 1.6749,21.95911 11.4748,-0.13518 0.9566,9.07104 -11.7362,0.17911 2.2122,29.00396 13.9381,-0.36727 1.1934,10.98564 z m 21.6605,-0.66241 -9.2759,-78.39318 8.4194,-0.004 c 1.6859,-7.1e-4 3.0536,0.58376 4.1093,1.75847 1.0572,1.15186 2.0854,3.22272 3.0919,6.24346 1.0228,3.06935 1.8439,6.52094 2.4604,10.37556 0.8136,5.08702 1.0515,9.48664 0.6925,13.14908 -0.3662,3.73408 -1.4703,6.15831 -3.3163,7.22297 0.9261,1.31637 1.6785,2.62549 2.2557,3.92738 1.2469,2.84871 2.5794,6.46879 4.0068,10.89994 l 7.7311,24.20287 -3.7861,0.11579 -5.8226,-18.76903 c -1.6013,-5.12857 -2.8496,-8.97044 -3.7646,-11.5918 -0.9038,-2.58929 -1.6356,-4.38125 -2.2016,-5.39596 -0.5538,-1.01009 -1.0722,-1.7086 -1.5565,-2.0986 -0.3494,-0.24722 -0.8818,-0.36511 -1.5977,-0.35388 l -3.2266,0.0507 4.8303,38.56656 z m -2.8935,-47.54467 5.8448,-0.0718 c 1.2395,-0.0152 2.1403,-0.49051 2.7012,-1.42222 0.553,-0.96079 0.8558,-2.45417 0.9103,-4.46793 0.049,-2.02558 -0.1043,-4.19126 -0.456,-6.49237 -0.5077,-3.32137 -1.2555,-6.00725 -2.2421,-8.0842 -0.9674,-2.0552 -2.1615,-3.07245 -3.5909,-3.06786 l -6.1215,0.0196 z m 29.8645,12.54857 -1.785,-9.16801 8.5794,-0.16973 6.5743,30.38921 c -0.4272,4.65807 -1.1549,8.2541 -2.1852,10.73108 -1.0518,2.46509 -2.4018,3.73454 -4.0418,3.78572 -2.2173,0.0692 -4.6037,-1.83964 -7.1251,-5.67923 -2.478,-3.8192 -4.7734,-9.24423 -6.8653,-16.15339 -2.0267,-6.69355 -3.6879,-13.93749 -4.9925,-21.66108 -1.2447,-7.36844 -1.9624,-14.00043 -2.1821,-19.95409 -0.2095,-5.79993 0.1775,-9.98906 1.1446,-12.6701 0.9522,-2.63954 2.3503,-3.94404 4.2032,-3.94404 1.3437,0 2.7066,0.7508 4.0976,2.2608 1.4037,1.49192 2.7065,3.60359 3.9136,6.3563 1.2248,2.79277 2.5019,6.49922 3.8421,11.17302 l -1.8391,2.3369 c -1.0448,-3.59319 -1.9846,-6.36942 -2.8273,-8.36281 -0.8341,-1.97314 -1.7608,-3.53012 -2.7824,-4.68112 -1.0218,-1.17468 -2.0085,-1.75815 -2.9651,-1.75543 -1.1471,0.003 -2.0232,0.62308 -2.6309,1.86629 -0.6178,1.22179 -1.0051,2.85225 -1.1598,4.90205 -0.1476,2.07308 -0.1441,4.37653 0.014,6.91814 0.2838,4.45693 0.9002,9.4076 1.8639,14.88475 1.2256,6.9653 2.6064,12.97704 4.1367,17.93757 1.5769,5.07904 3.248,8.91755 4.9993,11.44455 1.7707,2.55501 3.3902,3.82361 4.8427,3.78454 1.2608,-0.0339 2.2943,-1.04456 3.0954,-3.01714 0.785,-1.99293 1.2529,-4.07742 1.4083,-6.25101 l -3.2318,-15.40919 z m 20.5066,33.54415 -17.4227,-76.95777 13.2931,-0.006 2.0018,7.61367 -11.0691,0.0376 4.9959,21.4318 10.943,-0.12891 2.307,8.8379 -11.1802,0.17062 6.5715,28.19092 13.2324,-0.34868 2.8136,10.65421 z m 20.4627,-0.62579 -20.855,-76.33914 2.473,-0.001 26.9867,57.03475 -17.4627,-57.03875 2.2899,-9.6e-4 23.6903,75.82151 -2.9335,0.0897 -28.8118,-61.88213 17.3962,62.23124 z m 26.525,-30.8083 3.5973,2.60256 c 2.67,8.87751 4.1909,15.93626 4.4799,20.97472 0.2912,5.12241 -0.6731,7.76605 -2.9013,7.8356 -2.3104,0.0721 -4.8637,-1.86479 -7.6216,-5.76108 -2.7155,-3.8716 -5.6009,-9.3697 -8.6154,-16.36881 -2.9092,-6.77622 -5.5315,-13.82259 -7.8711,-21.09829 -2.4573,-7.6417 -4.1484,-14.06662 -5.1222,-19.37798 -0.9481,-5.19342 -1.1699,-9.03186 -0.6904,-11.59469 0.471,-2.55339 1.4909,-3.81581 3.0636,-3.81581 1.7812,0 3.8383,1.58612 6.2023,4.79798 2.4038,3.26583 4.9671,7.9568 7.7258,14.18083 l -1.6667,2.13684 c -2.2123,-4.98128 -4.0953,-8.52718 -5.6781,-10.71456 -1.5654,-2.16338 -2.9477,-3.23446 -4.1605,-3.23102 -1.3957,0.004 -2.1621,1.20162 -2.2995,3.61761 -0.1308,2.44943 0.3062,5.79553 1.3298,10.08525 1.0367,4.35675 2.3483,8.96163 3.9458,13.82784 2.1197,6.45665 4.277,12.27161 6.4592,17.37873 2.2334,5.19601 4.354,9.15825 6.3377,11.81319 2.0073,2.68639 3.6592,4.02422 4.9369,3.98957 1.5525,-0.0421 2.2127,-1.93741 1.9854,-5.63549 -0.2233,-3.63224 -1.3851,-8.88711 -3.4369,-15.64299 z m 22.8367,29.29873 -13.5946,-35.16245 -22.1642,-39.6816 2.8538,-0.001 11.0899,19.73442 c 2.1962,3.92449 4.3894,7.92857 6.5796,12.0149 -0.9152,-3.8055 -1.8762,-8.00276 -2.878,-12.56358 l -4.1835,-19.1902 2.7038,-0.001 8.5706,39.64641 13.8032,35.11941 z"
         id="text13"
         style="font-size:43.0646px;font-family:Arial;-inkscape-font-specification:'Arial, Normal';fill:#000000;fill-opacity:1;stroke:#000000;stroke-width:2"
         aria-label="EMERGENCY"
         inkscape:path-effect="#path-effect13"
         inkscape:original-d="m 1310.1847,649.37238 v -30.82652 h 22.2893 v 3.63778 h -18.21 v 9.44141 h 17.0535 v 3.61675 h -17.0535 v 10.49279 h 18.9249 v 3.63779 z m 28.5135,0 v -30.82652 h 6.14 l 7.2966,21.82669 q 1.0093,3.049 1.4719,4.56299 0.5257,-1.68221 1.6402,-4.94149 l 7.3807,-21.44819 h 5.4882 v 30.82652 h -3.9322 v -25.80092 l -8.9577,25.80092 h -3.6799 l -8.9157,-26.2425 v 26.2425 z m 36.0834,0 v -30.82652 h 22.2893 v 3.63778 h -18.21 v 9.44141 h 17.0535 v 3.61675 h -17.0535 v 10.49279 h 18.9249 v 3.63779 z m 28.7027,0 v -30.82652 h 13.668 q 4.1214,0 6.2662,0.8411 2.1448,0.82008 3.4275,2.92285 1.2827,2.10276 1.2827,4.6471 0,3.28032 -2.1238,5.53027 -2.1238,2.24996 -6.5606,2.85976 1.6191,0.77802 2.4602,1.53502 1.7874,1.64015 3.3855,4.10039 l 5.362,8.39003 h -5.1307 l -4.0794,-6.41343 q -1.7873,-2.77565 -2.9439,-4.24759 -1.1565,-1.47193 -2.0817,-2.06071 -0.9042,-0.58877 -1.8504,-0.82007 -0.6939,-0.1472 -2.271,-0.1472 h -4.7312 v 13.689 z m 4.0794,-17.22164 h 8.7685 q 2.7967,0 4.3737,-0.56775 1.5771,-0.58877 2.3972,-1.85043 0.8201,-1.28268 0.8201,-2.77565 0,-2.18687 -1.5981,-3.59572 -1.5771,-1.40885 -5.0046,-1.40885 h -9.7568 z m 41.3824,5.13074 v -3.61675 l 13.0581,-0.021 v 11.43904 q -3.0069,2.39715 -6.2031,3.61675 -3.1962,1.19858 -6.5607,1.19858 -4.5419,0 -8.2638,-1.93455 -3.7009,-1.95557 -5.5934,-5.6354 -1.8925,-3.67984 -1.8925,-8.22181 0,-4.49991 1.8715,-8.39003 1.8925,-3.91114 5.4251,-5.80362 3.5327,-1.89249 8.1377,-1.89249 3.3434,0 6.035,1.09343 2.7125,1.07241 4.2475,3.00696 1.5351,1.93454 2.3341,5.04663 l -3.6798,1.00933 q -0.6939,-2.3551 -1.7243,-3.70087 -1.0303,-1.34577 -2.9439,-2.14482 -1.9135,-0.82007 -4.2475,-0.82007 -2.7967,0 -4.8364,0.86213 -2.0397,0.8411 -3.3013,2.22893 -1.2407,1.38782 -1.9346,3.04901 -1.1775,2.85975 -1.1775,6.20315 0,4.12142 1.4088,6.89706 1.4299,2.77565 4.1425,4.12142 2.7125,1.34577 5.7615,1.34577 2.6495,0 5.1728,-1.00933 2.5234,-1.03035 3.8271,-2.18687 v -5.74055 z m 19.1561,12.0909 v -30.82652 h 22.2893 v 3.63778 h -18.2099 v 9.44141 h 17.0534 v 3.61675 h -17.0534 v 10.49279 h 18.9249 v 3.63779 z m 28.5976,0 v -30.82652 h 4.1845 l 16.1913,24.20281 v -24.20281 h 3.9111 v 30.82652 h -4.1845 l -16.1912,-24.22384 v 24.22384 z m 53.1369,-10.80821 4.0793,1.03035 q -1.2827,5.02561 -4.626,7.67509 -3.3224,2.62846 -8.1377,2.62846 -4.9836,0 -8.1167,-2.01866 -3.1121,-2.03968 -4.7523,-5.88774 -1.6191,-3.84805 -1.6191,-8.26386 0,-4.81533 1.8294,-8.39002 1.8504,-3.59573 5.2359,-5.44616 3.4065,-1.87146 7.4858,-1.87146 4.6261,0 7.7803,2.35509 3.1541,2.3551 4.3947,6.62371 l -4.0162,0.94624 q -1.0724,-3.36442 -3.1121,-4.89944 -2.0397,-1.53501 -5.1308,-1.53501 -3.5536,0 -5.9508,1.70323 -2.3761,1.70324 -3.3434,4.58403 -0.9673,2.85976 -0.9673,5.90877 0,3.93216 1.1355,6.87603 1.1566,2.92284 3.5747,4.37375 2.4182,1.45091 5.2359,1.45091 3.4275,0 5.8036,-1.9766 2.3762,-1.9766 3.2173,-5.86671 z m 17.7893,10.80821 v -13.05817 l -11.8806,-17.76835 h 4.9626 l 6.0769,9.29421 q 1.6822,2.60743 3.1332,5.21486 1.3878,-2.41818 3.3644,-5.44616 l 5.9718,-9.06291 h 4.7523 l -12.3012,17.76835 v 13.05817 z"
         transform="matrix(0.84086689,0,0,0.90596747,233.43239,68.26119)" />
    </g>
  </g>
</svg>
